<svg id="Calque_1" data-name="Calque 1" xmlns="http://www.w3.org/2000/svg" viewBox="0 0 970.49 410.97"><defs><style>.cls-1{fill:#bec3c9;}</style></defs><circle class="cls-1" cx="785.85" cy="237.94" r="42.14"/><circle class="cls-1" cx="42.14" cy="237.94" r="42.14"/><rect class="cls-1" x="650.77" y="226.88" width="124.89" height="21.07"/><path class="cls-1" d="M503.34,246.58,489.15,231l72.72-66.28a99.87,99.87,0,0,1,67.44-26.12v21.07a78.9,78.9,0,0,0-53.25,20.62Z"/><path class="cls-1" d="M368.27,334.34V313.27a78.87,78.87,0,0,0,53.25-20.63l72.72-66.27,14.2,15.57-72.72,66.28A100,100,0,0,1,368.27,334.34Z"/><path class="cls-1" d="M176.25,411c-13,0-25.84-4.63-34.38-13.57-14.1-14.78-11.65-36.07-10.47-46.3,2.7-23.44,6.67-57.84,14.56-102.33l-91.41.06V227.79l95.13-.07L178.92,53.28l.17-.59c2.1-7.25,11-31.92,36.63-44.68,18-9,45.62-12.5,63.53,1,23.33,17.55,24.37,58.6,3,118.72-10.11,28.41-26.66,56.81-45.41,77.92-21.34,24-45.13,38.46-69.3,42.21-8.34,46.13-12.44,81.72-15.21,105.7-1.29,11.27-1.62,22.63,4.78,29.34,8,8.41,25.48,9.45,35.92,2.15,14.24-10,12-33.28,11.73-35.91-.93-8.23-3.89-13.4-7.31-19.39-4.59-8-9.8-17.15-9.08-32.37.62-12.94,4.56-23.71,11.73-32,11.35-13.18,27.27-15.87,33.27-16.89,22.74-3.86,44.88-3.95,64.41-4,27.47-.12,51.19-.22,66.19-10.53,11.81-8.11,19.48-23.77,22.82-46.55,3.62-24.82,22.19-44.73,46.2-49.55,30-6,53.74,13.91,61.67,27.9A81.33,81.33,0,0,1,505,198.37l7.27,77.13a60.6,60.6,0,0,0,7.57,24.11c9.54,16.94,26.39,20.33,39,17.86,12.78-2.51,27.32-12.18,29.79-31.8l.55-4.41a62.22,62.22,0,0,1,61.64-54.38h25.1V248h-25.1A41.12,41.12,0,0,0,610,283.88l-.56,4.42c-3.18,25.34-21.49,44.91-46.63,49.84a60.27,60.27,0,0,1-11.64,1.15A56.63,56.63,0,0,1,501.45,310a81.58,81.58,0,0,1-10.19-32.46L484,200.36a60.67,60.67,0,0,0-7.67-24.28c-4.06-7.17-19.59-21.57-39.19-17.63-15.31,3.07-27.16,15.91-29.5,31.94-4.22,28.82-14.89,49.3-31.73,60.87-20.35,14-47.09,14.1-78.05,14.23-19.63.08-39.93.16-61,3.73-4.32.74-14.44,2.45-20.83,9.87-6.06,7-6.5,16.24-6.64,19.27-.43,9.09,2.4,14.05,6.33,20.92,3.79,6.64,8.52,14.91,9.95,27.46.73,6.37,3.14,39-20.6,55.56A50.55,50.55,0,0,1,176.25,411ZM199.49,58l-28.08,167.5c20.87-5.63,38.13-20.89,49.68-33.88,17-19.15,32.07-45,41.3-71,17.21-48.4,18.78-83.85,4.2-94.82-10.19-7.66-29-5.18-41.48,1C207.71,35.52,201.25,52.24,199.49,58Z"/><path class="cls-1" d="M295.79,370.4a274.56,274.56,0,0,1-5.7-109.64c11.67-77.2,54.31-130.37,78.69-155.19l15,14.77c-22.59,23-62.1,72.24-72.89,143.58a253.61,253.61,0,0,0,5.29,101.26Z"/><path class="cls-1" d="M644.6,376.2l-17.32-12c18.37-26.5,49-81.73,47.5-153.85a253.68,253.68,0,0,0-22.37-98.91l19.24-8.6a274.82,274.82,0,0,1,24.2,107.08C697.43,288,664.42,347.61,644.6,376.2Z"/></svg>