<svg id="Calque_1" data-name="Calque 1" xmlns="http://www.w3.org/2000/svg" xmlns:xlink="http://www.w3.org/1999/xlink" viewBox="0 0 2480.46 908.92"><defs><style>.cls-1,.cls-3{fill:none;}.cls-2{fill:#fff;}.cls-3{stroke:#fff;stroke-miterlimit:10;stroke-width:42px;}.cls-4{clip-path:url(#clip-path);}.cls-5{clip-path:url(#clip-path-2);}</style><clipPath id="clip-path"><path class="cls-1" d="M440,420.62a149.81,149.81,0,0,1-62.19,68.3A192.87,192.87,0,0,1,299.1,514.1h-.05L159.71,527.23a63.86,63.86,0,0,0-26,8.32c-6.14,3.55-8.1,7.3-9,9.81a22.89,22.89,0,0,0,4.6,22.72c1.84,1.95,5.1,4.64,12.13,5.52l9.26,1.16c71.75,9,127.46,65.57,137,135.54H446.52V403.36A149.32,149.32,0,0,1,440,420.62Z"/></clipPath><clipPath id="clip-path-2"><path class="cls-1" d="M6.52,491.3A149.76,149.76,0,0,1,68.71,423a192.87,192.87,0,0,1,78.71-25.18h.05l139.3-13.12a63.85,63.85,0,0,0,26-8.33c6.14-3.54,8.09-7.29,9-9.8a22.84,22.84,0,0,0-4.59-22.72c-1.84-1.95-5.1-4.64-12.13-5.52l-9.26-1.17A158.45,158.45,0,0,1,157.33,180.2v-9.34H0v337.7A149.32,149.32,0,0,1,6.52,491.3Z"/></clipPath></defs><rect class="cls-2" x="2311.16" y="165.1" width="41.59" height="38.93"/><path class="cls-2" d="M852.77,502.4l3.57-1.71c6.57-3.17,12.28-6.19,17-9,2.6-1.55,63.53-38.83,64.3-110.14.64-60.33-42.06-96.74-50.63-103.42a146.56,146.56,0,0,0-26.24-16,118.47,118.47,0,0,0-13.17-5.67v0a150.55,150.55,0,0,0-45.92-8.92l-.39,0H643.36c-40.59,0-73.69,31.26-73.78,69.66l-1.16,375.73,42,.13.39-127.08L810.2,517l45.9,54.79.6.6c27.14,27.56,42.09,63.16,42.09,100.25v20.29h42V672.63c0-47.91-19-93.72-53.56-129.11ZM611.58,317.25c0-15.32,14.29-27.78,31.78-27.78H800.48a108.69,108.69,0,0,1,32.72,6.4c.52.19,16,6,27.95,15.36,3.57,2.79,34.91,28.45,34.47,69.86-.52,48.06-43.43,74.29-43.86,74.55a222.56,222.56,0,0,1-20.69,10.47h0c-6.16,2.69-12.51,5.09-18.87,7.14L611,522.63Z"/><path class="cls-2" d="M1243.76,494.83a120.25,120.25,0,1,0,0-240.5H1133.62a120.39,120.39,0,0,0-120.26,120.25V563.44a120.4,120.4,0,0,0,120.26,120.25h197.49v-42H1133.62a78.34,78.34,0,0,1-78.26-78.25V494.83Zm-188.4-120.25a78.34,78.34,0,0,1,78.26-78.25h110.14a78.25,78.25,0,0,1,0,156.5h-188.4Z"/><rect class="cls-2" x="2310.89" y="253.58" width="42" height="422.94"/><path class="cls-2" d="M2101.17,254.33H1991a120.39,120.39,0,0,0-120.25,120.25V563.44A120.39,120.39,0,0,0,1991,683.69h110.15a120.39,120.39,0,0,0,120.25-120.25V374.58A120.39,120.39,0,0,0,2101.17,254.33Zm78.25,309.11a78.34,78.34,0,0,1-78.25,78.25H1991a78.34,78.34,0,0,1-78.25-78.25V374.58A78.34,78.34,0,0,1,1991,296.33h110.15a78.34,78.34,0,0,1,78.25,78.25Z"/><rect class="cls-2" x="2438.46" y="163.57" width="42" height="512.95"/><path class="cls-2" d="M1557.64,301.15h110.15A78.34,78.34,0,0,1,1746,379.4h42a120.39,120.39,0,0,0-120.25-120.25H1557.64A120.39,120.39,0,0,0,1437.39,379.4V568.26a120.39,120.39,0,0,0,120.25,120.25h110.15A120.39,120.39,0,0,0,1788,568.26v-21h-42v21a78.34,78.34,0,0,1-78.25,78.25H1557.64a78.34,78.34,0,0,1-78.25-78.25V379.4A78.34,78.34,0,0,1,1557.64,301.15Z"/><path class="cls-3" d="M222.33,150v30.16a93.19,93.19,0,0,0,81.58,92.47l9.25,1.16c81.27,10.21,103,117.83,32.13,158.82h0a129.26,129.26,0,0,1-52.37,16.76L153.6,462.52a129.26,129.26,0,0,0-52.37,16.76h0c-70.91,41-49.15,148.61,32.12,158.82l9.26,1.16a93.18,93.18,0,0,1,81.58,92.46v30.17"/><g class="cls-4"><path class="cls-3" d="M378.39,690.53h0a161.84,161.84,0,0,0-42.23-109L216.43,450.14"/></g><g class="cls-5"><path class="cls-3" d="M62.86,219h0a161.8,161.8,0,0,0,42.23,109L224.81,459.34"/></g><circle class="cls-2" cx="223.26" cy="76.86" r="76.86"/><circle class="cls-2" cx="223.52" cy="832.06" r="76.86"/></svg>