<svg id="Calque_1" data-name="Calque 1" xmlns="http://www.w3.org/2000/svg" viewBox="0 0 1912.04 530.06"><defs><style>.cls-1,.cls-2{fill:none;stroke:#fff;stroke-miterlimit:10;stroke-width:42px;}.cls-2{stroke-linecap:square;}.cls-3{fill:#fff;}</style></defs><path class="cls-1" d="M351.37,529.35V509.06c0-42.54-17.16-83.55-48.13-115L245.1,324.7"/><path class="cls-1" d="M21,529.35l1.16-375.72c.06-26.93,23.67-48.73,52.78-48.73H232.47A130.1,130.1,0,0,1,272,112.58s18.6,6.78,33.65,18.52c14,10.91,43,41.71,42.55,86.65-.59,54.19-43.67,86.11-54.08,92.34A239.28,239.28,0,0,1,271,321.79a226.54,226.54,0,0,1-21.56,8.13L26.77,384.55"/><path class="cls-2" d="M465.94,310.26h209.4A99.25,99.25,0,0,0,774.59,211h0a99.26,99.26,0,0,0-99.25-99.25H565.2A99.26,99.26,0,0,0,465.94,211V399.87a99.26,99.26,0,0,0,99.26,99.25H741.69"/><line class="cls-2" x1="1763.47" y1="111.01" x2="1763.47" y2="491.95"/><path class="cls-2" d="M1632,399.87a99.26,99.26,0,0,1-99.25,99.25H1422.6a99.26,99.26,0,0,1-99.25-99.25V211a99.26,99.26,0,0,1,99.25-99.25h110.15A99.26,99.26,0,0,1,1632,211h0Z"/><line class="cls-2" x1="1891.04" y1="21" x2="1891.04" y2="491.95"/><rect class="cls-3" x="1742.74" y="1.53" width="41.59" height="38.93"/><path class="cls-2" d="M1198.62,404.69a99.25,99.25,0,0,1-99.26,99.25H989.22A99.25,99.25,0,0,1,890,404.69V215.83a99.26,99.26,0,0,1,99.25-99.25h110.14a99.26,99.26,0,0,1,99.26,99.25h0"/></svg>