<svg id="Calque_1" data-name="Calque 1" xmlns="http://www.w3.org/2000/svg" viewBox="0 0 970.49 410.97"><defs><style>.cls-1{fill:#bec3c9;}</style></defs><path class="cls-1" d="M456.17,205.53c0-30-37.52-58.35-95.05-76C374.4,70.94,368.5,24.3,342.5,9.36A40.45,40.45,0,0,0,321.85,4.2V24.76a21.44,21.44,0,0,1,10.51,2.39c12.54,7.19,18,34.57,13.74,69.79-1,8.66-2.68,17.79-4.7,27.1A447.29,447.29,0,0,0,282.86,114,450.38,450.38,0,0,0,244.51,67.9C274.56,40,302.77,24.66,321.94,24.66V4.11h0c-25.35,0-58.53,18.07-92.09,49.41-33.55-31.16-66.74-49-92.09-49V25c19.08,0,47.38,15.21,77.43,43a436.35,436.35,0,0,0-38.07,46,431.35,431.35,0,0,0-58.63,10.14c-2.12-9.22-3.69-18.16-4.79-26.73-4.34-35.22,1-62.6,13.46-69.88,2.76-1.66,6.36-2.39,10.6-2.39V4.57h0a41.15,41.15,0,0,0-20.84,5.16C91,24.66,85.21,71.22,98.58,129.66c-57.34,17.7-94.68,46-94.68,75.87s37.52,58.36,95.05,76c-13.28,58.63-7.38,105.28,18.62,120.21a40.46,40.46,0,0,0,20.74,5.17c25.35,0,58.54-18.07,92.09-49.41,33.56,31.15,66.75,49,92.1,49a41.12,41.12,0,0,0,20.83-5.16C369.24,386.4,375,339.85,361.68,281.4,418.83,263.79,456.17,235.4,456.17,205.53Zm-120-61.48c-3.41,11.89-7.65,24.15-12.44,36.41-3.78-7.38-7.75-14.75-12.08-22.13s-8.76-14.56-13.27-21.57C311.44,138.7,324.06,141.1,336.14,144.05Zm-42.22,98.17c-7.19,12.45-14.57,24.25-22.22,35.22-13.73,1.2-27.65,1.84-41.66,1.84s-27.84-.64-41.49-1.75c-7.65-11-15.12-22.68-22.31-35q-10.5-18.12-19.17-36.69c5.71-12.35,12.17-24.71,19.08-36.78,7.19-12.45,14.57-24.25,22.22-35.22C202.1,132.61,216,132,230,132s27.84.64,41.48,1.75c7.65,11,15.12,22.68,22.31,35q10.5,18.12,19.17,36.69C307.19,217.79,300.83,230.15,293.92,242.22Zm29.78-12c5,12.35,9.21,24.7,12.72,36.69-12.08,2.95-24.8,5.44-38,7.37,4.51-7.09,9-14.38,13.27-21.84S319.92,237.61,323.7,230.24ZM230.22,328.6a379.78,379.78,0,0,1-25.63-29.5c8.3.37,16.78.65,25.35.65s17.24-.19,25.63-.65A360,360,0,0,1,230.22,328.6Zm-68.59-54.3c-13.09-1.93-25.72-4.33-37.79-7.28,3.41-11.89,7.65-24.15,12.44-36.41,3.78,7.37,7.75,14.75,12.08,22.12S157.12,267.3,161.63,274.3ZM229.76,82.46A381.65,381.65,0,0,1,255.39,112c-8.3-.36-16.78-.64-25.35-.64s-17.24.18-25.63.64A359.73,359.73,0,0,1,229.76,82.46Zm-68.22,54.3c-4.52,7.1-9,14.38-13.27,21.85s-8.21,14.75-12,22.13c-5-12.36-9.22-24.71-12.72-36.69C135.64,141.19,148.36,138.7,161.54,136.76ZM78.11,252.18C45.48,238.26,24.37,220,24.37,205.53s21.11-32.82,53.74-46.64c7.93-3.41,16.6-6.46,25.54-9.31a443.17,443.17,0,0,0,20.74,56.14,436.29,436.29,0,0,0-20.46,55.86C94.8,258.72,86.13,255.59,78.11,252.18Zm49.6,131.73c-12.54-7.19-18-34.57-13.74-69.78,1-8.67,2.68-17.79,4.7-27.1a447.32,447.32,0,0,0,58.54,10,449.45,449.45,0,0,0,38.35,46.1c-30.05,27.93-58.26,43.23-77.43,43.23A21.93,21.93,0,0,1,127.71,383.91Zm218.66-70.24c4.34,35.21-1,62.59-13.46,69.87-2.76,1.66-6.36,2.4-10.6,2.4-19.08,0-47.38-15.21-77.43-43A435.33,435.33,0,0,0,283,297a429.81,429.81,0,0,0,58.63-10.14A256.75,256.75,0,0,1,346.37,313.67Zm35.5-61.49c-7.93,3.41-16.6,6.45-25.54,9.31a442.61,442.61,0,0,0-20.74-56.14,436.41,436.41,0,0,0,20.46-55.87c9.13,2.86,17.8,6,25.91,9.41,32.63,13.92,53.74,32.17,53.74,46.64S414.5,238.35,381.87,252.18Z"/><circle class="cls-1" cx="229.94" cy="205.53" r="42.13"/></svg>