<svg id="Calque_1" data-name="Calque 1" xmlns="http://www.w3.org/2000/svg" viewBox="0 0 970.49 327.02"><defs><style>.cls-1{fill:none;stroke:#000;stroke-miterlimit:10;stroke-width:21.07px;}</style></defs><path class="cls-1" d="M112.69,214.5h64a38,38,0,0,0,38-38V151.44a38.92,38.92,0,0,1,38.92-38.92H379.71a38.91,38.91,0,0,1,38.92,38.92v25.05a38,38,0,0,0,38,38h64"/><path class="cls-1" d="M316.65,214.5v63.38a38.6,38.6,0,0,0,38.6,38.6h229a38.37,38.37,0,0,0,38.37-38.38V253.76a39.27,39.27,0,0,1,39.27-39.26h62.72"/><path class="cls-1" d="M520.61,214.5V151.36a38.84,38.84,0,0,1,38.85-38.84H889.92a38.62,38.62,0,0,1,38.62,38.62V214.5"/><path class="cls-1" d="M724.58,214.5v63.29a38.69,38.69,0,0,0,38.68,38.69H890.1A38.44,38.44,0,0,0,928.54,278V220.87"/><path class="cls-1" d="M112.69,214.5H49.82A39.22,39.22,0,0,1,10.6,175.39l-.06-23.55a39.21,39.21,0,0,1,39.21-39.32h74.72A39.22,39.22,0,0,0,163.68,73.3V50.62A39.22,39.22,0,0,1,202.82,11.4l470.12-.86a51.63,51.63,0,0,1,51.64,51.63V201.75"/><circle cx="520.61" cy="214.5" r="41.95"/><circle cx="316.65" cy="214.5" r="41.95"/><circle cx="724.58" cy="214.5" r="41.95"/><circle cx="928.54" cy="214.5" r="41.95"/><circle cx="112.69" cy="214.5" r="41.95"/></svg>