<svg id="Calque_1" data-name="Calque 1" xmlns="http://www.w3.org/2000/svg" viewBox="0 0 452.26 402.76"><path d="M452.26,201.43c0-30-37.52-58.36-95-76C370.49,66.83,364.6,20.19,338.6,5.25A40.45,40.45,0,0,0,318,.09V20.65a21.33,21.33,0,0,1,10.51,2.4c12.54,7.19,18,34.57,13.73,69.78-1,8.67-2.67,17.79-4.7,27.1a447,447,0,0,0-58.54-10,449.41,449.41,0,0,0-38.34-46.1C270.66,35.86,298.87,20.56,318,20.56V0h0C292.69,0,259.5,18.07,226,49.41c-33.56-31.16-66.75-49-92.1-49V20.93c19.09,0,47.39,15.21,77.44,43a435.27,435.27,0,0,0-38.07,46A429.54,429.54,0,0,0,114.59,120c-2.12-9.22-3.69-18.16-4.8-26.74-4.33-35.21,1-62.59,13.46-69.87,2.77-1.66,6.36-2.4,10.6-2.4V.46h0A41.12,41.12,0,0,0,113,5.62C87.12,20.56,81.31,67.11,94.67,125.56,37.34,143.26,0,171.56,0,201.43s37.52,58.35,95,76C81.77,336,87.67,382.66,113.67,397.6a40.52,40.52,0,0,0,20.74,5.16c25.35,0,58.54-18.07,92.09-49.41,33.56,31.16,66.74,49,92.09,49a41.15,41.15,0,0,0,20.84-5.16c25.9-14.94,31.71-61.49,18.34-119.94C414.93,259.69,452.26,231.29,452.26,201.43Zm-120-61.49c-3.41,11.89-7.65,24.15-12.45,36.41-3.78-7.37-7.74-14.75-12.07-22.12s-8.76-14.57-13.28-21.57C307.53,134.59,320.16,137,332.24,139.94ZM290,238.12c-7.19,12.44-14.57,24.24-22.22,35.21-13.74,1.2-27.66,1.84-41.67,1.84s-27.84-.64-41.48-1.75c-7.65-11-15.12-22.67-22.31-35-7-12.07-13.37-24.33-19.18-36.69,5.72-12.35,12.17-24.7,19.09-36.78,7.19-12.44,14.56-24.24,22.21-35.21,13.74-1.2,27.66-1.85,41.67-1.85s27.84.65,41.49,1.75c7.65,11,15.11,22.68,22.3,35,7,12.08,13.37,24.34,19.18,36.69C303.29,213.69,296.93,226,290,238.12Zm29.77-12c5,12.35,9.22,24.71,12.72,36.69-12.07,2.95-24.79,5.44-38,7.38,4.52-7.1,9-14.38,13.28-21.85S316,233.51,319.79,226.13Zm-93.47,98.36A377.66,377.66,0,0,1,200.69,295c8.3.37,16.78.65,25.35.65s17.24-.18,25.63-.65A360,360,0,0,1,226.32,324.49ZM157.73,270.2c-13.09-1.94-25.72-4.34-37.8-7.29,3.41-11.89,7.66-24.15,12.45-36.41,3.78,7.38,7.74,14.75,12.08,22.13S153.21,263.19,157.73,270.2ZM225.86,78.36a379.73,379.73,0,0,1,25.62,29.5c-8.29-.37-16.77-.65-25.35-.65s-17.24.19-25.63.65A358.11,358.11,0,0,1,225.86,78.36Zm-68.22,54.3c-4.52,7.09-9,14.38-13.28,21.84s-8.2,14.75-12,22.13c-5-12.35-9.22-24.71-12.72-36.69C131.73,137.08,144.46,134.59,157.64,132.66ZM74.21,248.07c-32.63-13.92-53.74-32.17-53.74-46.64s21.11-32.82,53.74-46.65c7.93-3.41,16.59-6.45,25.54-9.31a441.08,441.08,0,0,0,20.74,56.14A436.52,436.52,0,0,0,100,257.48C90.9,254.62,82.23,251.48,74.21,248.07Zm49.6,131.74c-12.54-7.19-18-34.57-13.74-69.79,1-8.66,2.67-17.79,4.7-27.1A449,449,0,0,0,173.31,293a449.08,449.08,0,0,0,38.35,46.09c-30,27.93-58.26,43.23-77.44,43.23A22,22,0,0,1,123.81,379.81Zm218.66-70.25c4.33,35.22-1,62.59-13.46,69.88-2.76,1.66-6.36,2.39-10.6,2.39-19.08,0-47.38-15.21-77.44-42.95a435.32,435.32,0,0,0,38.08-46,429.81,429.81,0,0,0,58.63-10.14A257.21,257.21,0,0,1,342.47,309.56ZM378,248.07c-7.93,3.41-16.59,6.46-25.53,9.31a442.72,442.72,0,0,0-20.75-56.14,434.89,434.89,0,0,0,20.47-55.86c9.13,2.85,17.79,6,25.9,9.4C410.69,168.7,431.8,187,431.8,201.43S410.6,234.24,378,248.07Z"/><circle cx="226.04" cy="201.43" r="42.13"/></svg>