<svg id="Calque_1" data-name="Calque 1" xmlns="http://www.w3.org/2000/svg" xmlns:xlink="http://www.w3.org/1999/xlink" viewBox="0 0 124 124"><defs><style>.cls-1,.cls-2{fill:none;}.cls-2{stroke:#007af4;stroke-miterlimit:10;stroke-width:8px;}.cls-3{fill:#007af4;}.cls-4{clip-path:url(#clip-path);}.cls-5{clip-path:url(#clip-path-2);}</style><clipPath id="clip-path"><path class="cls-1" d="M43.6,55.1a24.5,24.5,0,0,1,10-3.2l7.9-.74A20.9,20.9,0,0,1,50.9,33V32H38.4V59.37A20.52,20.52,0,0,1,43.6,55.1Z"/></clipPath><clipPath id="clip-path-2"><path class="cls-1" d="M80.4,69.22a24.55,24.55,0,0,1-10,3.2l-7.9.74A20.87,20.87,0,0,1,73,89H85.6V64.94A20.73,20.73,0,0,1,80.4,69.22Z"/></clipPath></defs><path class="cls-2" d="M61.9,20.65V33a9.86,9.86,0,0,0,8.62,9.78l1,.12a9,9,0,0,1,3.4,16.78h0a13.61,13.61,0,0,1-5.54,1.77L54.64,62.85a13.76,13.76,0,0,0-5.54,1.77h0a9,9,0,0,0,3.4,16.79l1,.12A9.86,9.86,0,0,1,62.1,91.3v12.37"/><circle class="cls-3" cx="62" cy="22.09" r="9.12"/><path class="cls-3" d="M62,14a8.13,8.13,0,1,1-8.12,8.12A8.12,8.12,0,0,1,62,14m0-2A10.13,10.13,0,1,0,72.12,22.09,10.13,10.13,0,0,0,62,12Z"/><path class="cls-3" d="M62,111a9.13,9.13,0,1,1,9.12-9.12A9.13,9.13,0,0,1,62,111Z"/><path class="cls-3" d="M62,93.78a8.13,8.13,0,1,1-8.12,8.13A8.13,8.13,0,0,1,62,93.78m0-2a10.13,10.13,0,1,0,10.12,10.13A10.14,10.14,0,0,0,62,91.78Z"/><g class="cls-4"><path class="cls-2" d="M45.05,37.11h0a17.11,17.11,0,0,0,4.46,11.52L62.16,62.52"/></g><g class="cls-5"><path class="cls-2" d="M78.39,87h0a17.11,17.11,0,0,0-4.46-11.52L61.28,61.54"/></g></svg>