<svg id="Calque_1" data-name="Calque 1" xmlns="http://www.w3.org/2000/svg" xmlns:xlink="http://www.w3.org/1999/xlink" viewBox="0 0 300 300"><defs><style>.cls-1,.cls-2{fill:none;}.cls-2{stroke:#007af4;stroke-miterlimit:10;stroke-width:16px;}.cls-3{fill:#007af4;}.cls-4{clip-path:url(#clip-path);}.cls-5{clip-path:url(#clip-path-2);}</style><clipPath id="clip-path"><path class="cls-1" d="M194.23,163.43A56.9,56.9,0,0,1,171,170.87l-37.76,3.56a12.29,12.29,0,0,0-5.1,1.64,1.89,1.89,0,0,0-.41.29,3.47,3.47,0,0,0,0,.56,1.42,1.42,0,0,0,.24.56s.16,0,.45.08l2.5.32a47.66,47.66,0,0,1,41.29,41.4h38.23V147.72A45.75,45.75,0,0,1,194.23,163.43Z"/></clipPath><clipPath id="clip-path-2"><path class="cls-1" d="M105.77,137.38A57,57,0,0,1,129,129.94l37.76-3.56a12.42,12.42,0,0,0,5.1-1.63,1.66,1.66,0,0,0,.41-.3,3.47,3.47,0,0,0,0-.56,1.49,1.49,0,0,0-.24-.56s-.16,0-.45-.08l-2.5-.31a47.66,47.66,0,0,1-41.65-47.21V73.2H89.54v79.9A45.69,45.69,0,0,1,105.77,137.38Z"/></clipPath></defs><path class="cls-2" d="M149.75,44V75.73a25.24,25.24,0,0,0,22.09,25l2.51.31c22,2.77,27.9,31.91,8.7,43h0a35.11,35.11,0,0,1-14.19,4.54l-37.72,3.55A35.11,35.11,0,0,0,117,156.72h0c-19.2,11.1-13.3,40.25,8.7,43l2.51.31a25.24,25.24,0,0,1,22.09,25v31.69"/><circle class="cls-3" cx="150" cy="47.74" r="20.81"/><circle class="cls-3" cx="150.07" cy="252.26" r="20.81"/><g class="cls-4"><path class="cls-2" d="M192,213.93h0a43.81,43.81,0,0,0-11.44-29.52l-32.42-35.58"/></g><g class="cls-5"><path class="cls-2" d="M106.56,86.23h0A43.83,43.83,0,0,0,118,115.75l32.42,35.57"/></g></svg>