<svg id="Calque_1" data-name="Calque 1" xmlns="http://www.w3.org/2000/svg" xmlns:xlink="http://www.w3.org/1999/xlink" viewBox="0 0 800 800"><defs><style>.cls-1,.cls-3{fill:none;}.cls-2{clip-path:url(#clip-path);}.cls-3{stroke:#007af4;stroke-miterlimit:10;stroke-width:33.29px;}.cls-4{clip-path:url(#clip-path-2);}.cls-5{fill:#007af4;}</style><clipPath id="clip-path"><path class="cls-1" d="M330.16,590.6l-7.34-.92a113.11,113.11,0,0,1-42.57-210.47,147,147,0,0,1,60-19.19l110.41-10.4a56.52,56.52,0,0,0,23-7.37c4.89-2.83,8.08-6.39,9.76-10.88a24.06,24.06,0,0,0-4.89-24.18c-3.29-3.48-7.62-5.52-13.22-6.22l-7.34-.92A119.6,119.6,0,0,1,353.48,181.59v-6.36H223.05V602.77H350A28.35,28.35,0,0,0,330.16,590.6Z"/></clipPath><clipPath id="clip-path-2"><path class="cls-1" d="M444.55,175.23v6.36a28.38,28.38,0,0,0,24.8,28.11l7.33.92a113.11,113.11,0,0,1,42.57,210.47,147.1,147.1,0,0,1-60,19.19l-110.41,10.4a56.47,56.47,0,0,0-23,7.37c-4.89,2.83-8.09,6.39-9.77,10.87A24,24,0,0,0,321,493.1c3.29,3.49,7.61,5.52,13.22,6.23l7.34.92A119.63,119.63,0,0,1,445,602.77H577V175.23Z"/></clipPath></defs><g class="cls-2"><path class="cls-3" d="M272.87,213.35h0a128.27,128.27,0,0,0,33.47,86.4l94.89,104.12"/></g><g class="cls-4"><path class="cls-3" d="M523,587.1h0a128.27,128.27,0,0,0-33.47-86.4L394.59,396.58"/></g><path class="cls-3" d="M399.26,158.72v23.91a73.86,73.86,0,0,0,64.66,73.28l7.34.92c64.41,8.09,81.66,93.39,25.46,125.88h0A102.54,102.54,0,0,1,455.21,396l-110.42,10.4a102.54,102.54,0,0,0-41.51,13.28h0c-56.2,32.48-38.95,117.78,25.46,125.87l7.34.92a73.87,73.87,0,0,1,64.66,73.29v23.91"/><circle class="cls-5" cx="400" cy="100.72" r="60.92"/><circle class="cls-5" cx="400.21" cy="699.28" r="60.92"/></svg>