<svg id="Calque_1" data-name="Calque 1" xmlns="http://www.w3.org/2000/svg" xmlns:xlink="http://www.w3.org/1999/xlink" viewBox="0 0 2874.75 1342.65"><defs><style>.cls-1,.cls-3,.cls-4{fill:none;}.cls-2{fill:#007af4;}.cls-3,.cls-4{stroke:#fff;stroke-miterlimit:10;stroke-width:42px;}.cls-4{stroke-linecap:square;}.cls-5{fill:#fff;}.cls-6{clip-path:url(#clip-path);}.cls-7{clip-path:url(#clip-path-2);}</style><clipPath id="clip-path"><path class="cls-1" d="M643.47,641.37a149.72,149.72,0,0,1-62.18,68.29,192.74,192.74,0,0,1-78.71,25.19h-.06L363.19,748a63.9,63.9,0,0,0-26,8.32c-6.13,3.55-8.09,7.3-9,9.81a22.89,22.89,0,0,0,4.6,22.72c1.84,1.95,5.1,4.64,12.12,5.52l9.27,1.16c71.75,9,127.46,65.57,137,135.54H650V624.11A147.57,147.57,0,0,1,643.47,641.37Z"/></clipPath><clipPath id="clip-path-2"><path class="cls-1" d="M210,712a149.82,149.82,0,0,1,62.18-68.29,192.82,192.82,0,0,1,78.71-25.18H351l139.3-13.12a63.9,63.9,0,0,0,26-8.33c6.13-3.54,8.09-7.29,9-9.8a22.9,22.9,0,0,0-4.59-22.72c-1.85-2-5.11-4.64-12.13-5.52l-9.26-1.17a158.46,158.46,0,0,1-138.49-157v-9.33H203.48v337.7A145.89,145.89,0,0,1,210,712Z"/></clipPath></defs><rect class="cls-2" x="2.52" width="2872.23" height="1342.65"/><path class="cls-3" d="M1123.27,913.67v-20.3c0-42.53-17.17-83.54-48.14-115L1017,709"/><path class="cls-3" d="M792.9,913.67,794.05,538c.07-26.93,23.68-48.73,52.79-48.73h157.52a129.74,129.74,0,0,1,39.53,7.68s18.6,6.77,33.66,18.52c14,10.9,43,41.71,42.54,86.65-.58,54.18-43.66,86.11-54.07,92.34a243.2,243.2,0,0,1-23.09,11.7,223.24,223.24,0,0,1-21.56,8.12l-222.7,54.63"/><path class="cls-4" d="M1237.84,694.58h209.4a99.26,99.26,0,0,0,99.25-99.25h0a99.25,99.25,0,0,0-99.25-99.25H1337.09a99.25,99.25,0,0,0-99.25,99.25V784.19a99.26,99.26,0,0,0,99.25,99.25h176.49"/><line class="cls-4" x1="2535.37" y1="495.32" x2="2535.37" y2="876.26"/><path class="cls-4" d="M2403.9,784.19a99.26,99.26,0,0,1-99.26,99.25H2194.5a99.25,99.25,0,0,1-99.25-99.25V595.33a99.24,99.24,0,0,1,99.25-99.25h110.14a99.25,99.25,0,0,1,99.26,99.25h0Z"/><line class="cls-4" x1="2662.94" y1="405.32" x2="2662.94" y2="876.26"/><rect class="cls-5" x="2514.64" y="385.85" width="41.59" height="38.93"/><path class="cls-4" d="M1970.51,789a99.25,99.25,0,0,1-99.25,99.25H1761.12A99.25,99.25,0,0,1,1661.87,789V600.15a99.25,99.25,0,0,1,99.25-99.25h110.14a99.25,99.25,0,0,1,99.25,99.25h0"/><path class="cls-3" d="M425.8,370.78v30.16a93.19,93.19,0,0,0,81.59,92.47l9.25,1.16c81.27,10.21,103,117.83,32.12,158.82h0a129.1,129.1,0,0,1-52.36,16.75L357.08,683.27A129.11,129.11,0,0,0,304.71,700h0c-70.92,41-49.15,148.61,32.12,158.81l9.26,1.17a93.18,93.18,0,0,1,81.58,92.46v30.17"/><g class="cls-6"><path class="cls-3" d="M581.86,911.28h0a161.83,161.83,0,0,0-42.22-109L419.91,670.89"/></g><g class="cls-7"><path class="cls-3" d="M266.34,439.71h0a161.86,161.86,0,0,0,42.22,109L428.29,680.09"/></g><circle class="cls-5" cx="426.74" cy="297.61" r="76.86"/><circle class="cls-5" cx="427" cy="1052.81" r="76.86"/></svg>