<svg id="Calque_1" data-name="Calque 1" xmlns="http://www.w3.org/2000/svg" xmlns:xlink="http://www.w3.org/1999/xlink" viewBox="0 0 2874.75 1342.65"><defs><style>.cls-1,.cls-2,.cls-3{fill:none;}.cls-2,.cls-3{stroke:#007af4;stroke-miterlimit:10;stroke-width:42px;}.cls-3{stroke-linecap:square;}.cls-4{fill:#007af4;}.cls-5{clip-path:url(#clip-path);}.cls-6{clip-path:url(#clip-path-2);}</style><clipPath id="clip-path"><path class="cls-1" d="M338.62,915.7l-9.26-1.17A142.7,142.7,0,0,1,275.65,649a185.42,185.42,0,0,1,75.7-24.21l139.3-13.13a71.16,71.16,0,0,0,29.06-9.3c6.17-3.57,10.2-8.06,12.32-13.72a30.38,30.38,0,0,0-6.17-30.51c-4.15-4.39-9.61-7-16.69-7.85l-9.26-1.16A150.89,150.89,0,0,1,368.05,399.63v-8H203.48V931.05H363.69A35.7,35.7,0,0,0,338.62,915.7Z"/></clipPath><clipPath id="clip-path-2"><path class="cls-1" d="M482.94,391.61v8a35.81,35.81,0,0,0,31.3,35.47l9.25,1.16A142.71,142.71,0,0,1,577.2,701.82,185.52,185.52,0,0,1,501.5,726L362.2,739.15a71.31,71.31,0,0,0-29.06,9.3c-6.17,3.57-10.2,8.06-12.32,13.72A30.37,30.37,0,0,0,327,792.68c4.16,4.4,9.61,7,16.69,7.85l9.26,1.17A151,151,0,0,1,483.46,931.05H650V391.61Z"/></clipPath></defs><path class="cls-2" d="M1123.27,913.67v-20.3c0-42.53-17.17-83.54-48.14-115L1017,709"/><path class="cls-2" d="M792.9,913.67,794.05,538c.07-26.93,23.68-48.73,52.79-48.73h157.52a129.74,129.74,0,0,1,39.53,7.68s18.6,6.77,33.66,18.52c14,10.9,43,41.71,42.54,86.65-.58,54.18-43.66,86.11-54.07,92.34a243.2,243.2,0,0,1-23.09,11.7,223.24,223.24,0,0,1-21.56,8.12l-222.7,54.63"/><path class="cls-3" d="M1232.84,694.58h209.4a99.26,99.26,0,0,0,99.25-99.25h0a99.25,99.25,0,0,0-99.25-99.25H1332.09a99.25,99.25,0,0,0-99.25,99.25V784.19a99.26,99.26,0,0,0,99.25,99.25h176.49"/><line class="cls-3" x1="2514.37" y1="495.32" x2="2514.37" y2="876.26"/><path class="cls-3" d="M2388.9,784.19a99.26,99.26,0,0,1-99.26,99.25H2179.5a99.25,99.25,0,0,1-99.25-99.25V595.33a99.24,99.24,0,0,1,99.25-99.25h110.14a99.25,99.25,0,0,1,99.26,99.25h0Z"/><line class="cls-3" x1="2641.94" y1="405.32" x2="2641.94" y2="876.26"/><rect class="cls-4" x="2493.64" y="385.85" width="41.59" height="38.93"/><path class="cls-3" d="M1960.51,789a99.25,99.25,0,0,1-99.25,99.25H1751.12A99.25,99.25,0,0,1,1651.87,789V600.15a99.25,99.25,0,0,1,99.25-99.25h110.14a99.25,99.25,0,0,1,99.25,99.25h0"/><g class="cls-5"><path class="cls-2" d="M266.34,439.71h0a161.86,161.86,0,0,0,42.22,109L428.29,680.09"/></g><g class="cls-6"><path class="cls-2" d="M581.86,911.28h0a161.83,161.83,0,0,0-42.22-109L419.91,670.89"/></g><path class="cls-2" d="M425.8,370.78v30.16a93.19,93.19,0,0,0,81.59,92.47l9.25,1.16c81.27,10.21,103,117.83,32.12,158.82h0a129.1,129.1,0,0,1-52.36,16.75L357.08,683.27A129.11,129.11,0,0,0,304.71,700h0c-70.92,41-49.15,148.61,32.12,158.81l9.26,1.17a93.18,93.18,0,0,1,81.58,92.46v30.17"/><circle class="cls-4" cx="426.74" cy="297.61" r="76.86"/><circle class="cls-4" cx="427" cy="1052.81" r="76.86"/></svg>