<svg id="Calque_1" data-name="Calque 1" xmlns="http://www.w3.org/2000/svg" viewBox="0 0 255.21 623.91"><defs><style>.cls-1{fill:#007af4;}</style></defs><path class="cls-1" d="M74.62,277.46l1.24-.13,34.78-3.28L57.17,215.39A96.47,96.47,0,0,1,32,150.3H3A125.3,125.3,0,0,0,35.8,234.87Z"/><path class="cls-1" d="M177.13,347l-36,3.4,53.32,58.51A96.41,96.41,0,0,1,219.63,474h28.92a125.28,125.28,0,0,0-32.76-84.57Z"/><path class="cls-1" d="M253.69,231.68c-6.33-31.3-30.89-54.09-62.57-58.07l-6.35-.79a49.61,49.61,0,0,1-43.35-49.13v-20a52.75,52.75,0,1,0-28.91-.36v20.38a78.56,78.56,0,0,0,68.65,77.82l6.36.8c23.24,2.92,34.78,20,37.83,35.1s-.93,35.32-21.22,47a73.81,73.81,0,0,1-30.06,9.62l-95.66,9a102.45,102.45,0,0,0-41.8,13.38C9,332.45-4.81,363,1.52,394.29s30.89,54.08,62.57,58.06l6.35.8a49.6,49.6,0,0,1,43.35,49.12v18a52.75,52.75,0,1,0,28.91.26V502.27a78.55,78.55,0,0,0-68.65-77.81l-6.36-.8c-23.24-2.92-34.78-20.05-37.83-35.11s.93-35.32,21.22-47a73.68,73.68,0,0,1,30.06-9.63l95.66-9a102.45,102.45,0,0,0,41.8-13.38C246.25,293.52,260,263,253.69,231.68Z"/></svg>